custom-analysis
version=1
nRows=6
nColumns=98
inDegrees=no

This file contains tibia displacement and acting force.

Units are S.I. units (seconds, meters, Newtons, ...)
Angles are in degrees.

endheader
time	APT	SIT	knee_angle	aACL_R_force	pACL_R_force	aPCL_R_force	pPCL_R_force	aMCL_R_force	mMCL_R_force	pMCL_R_force	aLCL_R_force	mLCL_R_force	pLCL_R_force	aPCL_L_force	pPCL_L_force	aMCL_L_force	aLCL_L_force	aACL_R_length	pACL_R_length	aPCL_R_length	pPCL_R_length	aMCL_R_length	mMCL_R_length	pMCL_R_length	aLCL_R_length	mLCL_R_length	pLCL_R_length	aPCL_L_length	pPCL_L_length	aMCL_L_length	aLCL_L_length	aACL_R_strain	pACL_R_strain	aPCL_R_strain	pPCL_R_strain	aMCL_R_strain	mMCL_R_strain	pMCL_R_strain	aLCL_R_strain	mLCL_R_strain	pLCL_R_strain	aPCL_L_strain	pPCL_L_strain	aMCL_L_strain	aLCL_L_strain	femur_lat_meniscii_r.femur_lat_r.force.X	femur_lat_meniscii_r.femur_lat_r.force.Y	femur_lat_meniscii_r.femur_lat_r.force.Z	femur_lat_meniscii_r.femur_lat_r.torque.X	femur_lat_meniscii_r.femur_lat_r.torque.Y	femur_lat_meniscii_r.femur_lat_r.torque.Z	femur_lat_meniscii_r.meniscus_lat_r.force.X	femur_lat_meniscii_r.meniscus_lat_r.force.Y	femur_lat_meniscii_r.meniscus_lat_r.force.Z	femur_lat_meniscii_r.meniscus_lat_r.torque.X	femur_lat_meniscii_r.meniscus_lat_r.torque.Y	femur_lat_meniscii_r.meniscus_lat_r.torque.Z	femur_med_meniscii_r.femur_med_r.force.X	femur_med_meniscii_r.femur_med_r.force.Y	femur_med_meniscii_r.femur_med_r.force.Z	femur_med_meniscii_r.femur_med_r.torque.X	femur_med_meniscii_r.femur_med_r.torque.Y	femur_med_meniscii_r.femur_med_r.torque.Z	femur_med_meniscii_r.meniscus_med_r.force.X	femur_med_meniscii_r.meniscus_med_r.force.Y	femur_med_meniscii_r.meniscus_med_r.force.Z	femur_med_meniscii_r.meniscus_med_r.torque.X	femur_med_meniscii_r.meniscus_med_r.torque.Y	femur_med_meniscii_r.meniscus_med_r.torque.Z	femur_med_tibia_r.tibia_upper_r.force.X	femur_med_tibia_r.tibia_upper_r.force.Y	femur_med_tibia_r.tibia_upper_r.force.Z	femur_med_tibia_r.tibia_upper_r.torque.X	femur_med_tibia_r.tibia_upper_r.torque.Y	femur_med_tibia_r.tibia_upper_r.torque.Z	femur_med_tibia_r.femur_med_r.force.X	femur_med_tibia_r.femur_med_r.force.Y	femur_med_tibia_r.femur_med_r.force.Z	femur_med_tibia_r.femur_med_r.torque.X	femur_med_tibia_r.femur_med_r.torque.Y	femur_med_tibia_r.femur_med_r.torque.Z	femur_lat_tibia_r.tibia_upper_r.force.X	femur_lat_tibia_r.tibia_upper_r.force.Y	femur_lat_tibia_r.tibia_upper_r.force.Z	femur_lat_tibia_r.tibia_upper_r.torque.X	femur_lat_tibia_r.tibia_upper_r.torque.Y	femur_lat_tibia_r.tibia_upper_r.torque.Z	femur_lat_tibia_r.femur_lat_r.force.X	femur_lat_tibia_r.femur_lat_r.force.Y	femur_lat_tibia_r.femur_lat_r.force.Z	femur_lat_tibia_r.femur_lat_r.torque.X	femur_lat_tibia_r.femur_lat_r.torque.Y	femur_lat_tibia_r.femur_lat_r.torque.Z	femur_lat_meniscii_force_r	femur_med_meniscii_force_r	femur_lat_tibia_force_r	femur_med_tibia_force_r
      0.10396654	      0.00864370	      0.00708574	     26.50116811	     22.57471223	     -6.21103466	      0.00000000	      0.00000000	      0.00000000	      0.00000000	    -33.23260455	      0.00000000	      0.00000000	      0.00000000	      0.00000000	      0.00000000	      0.00000001	      0.00000000	      0.03311297	      0.02603652	      0.03016037	      0.02956571	      0.05712860	      0.05963614	      0.05917667	      0.05303942	      0.05016521	      0.04673812	      0.01525851	      0.01651186	      0.06550154	      0.04489616	      0.06797099	      0.03902131	     -0.03006654	     -0.01077679	     -0.04828491	     -0.00263172	      0.00763973	     -0.05248179	     -0.10926036	     -0.10707470	      0.00000079	     -0.32847694	      0.00000060	     -0.00000086	     19.10166217	    184.91422073	     26.55745432	    -15.37491425	      0.53864245	      7.36472974	    -19.10166217	   -184.91422073	    -26.55745432	      5.64140981	     -0.85125002	      1.81279518	    -16.98462683	     25.80000646	      0.24413536	      0.52348010	      0.40568371	     -6.97208490	     16.98462683	    -25.80000646	     -0.24413536	     -0.55745630	     -0.36903843	      0.73570205	    -49.12901684	   -473.35517144	    120.52818099	    -11.54261910	      1.70452452	      2.01401123	     49.12901684	    473.35517144	   -120.52818099	     58.73986265	     -0.59857358	     21.56770836	    -59.19790840	   -324.23298900	    -78.12990712	     10.97289125	     -2.30023959	      1.21971367	     59.19790840	    324.23298900	     78.12990712	    -40.11420021	      1.37365889	     24.70547484	    187.78562486	     30.88976342	    338.72659461	    490.92343704
      0.10485575	      0.00866617	      0.00719661	     26.88977508	     21.55144292	     -7.20247970	      0.00000000	      0.00000000	      0.00000000	      0.00000000	    -32.57226472	      0.00000000	      0.00000000	      0.00000000	      0.00000000	      0.00000000	      0.00000001	      0.00000000	      0.03308548	      0.02599768	      0.03024217	      0.02962945	      0.05716431	      0.05963680	      0.05913599	      0.05303518	      0.05013683	      0.04668550	      0.01525851	      0.01651186	      0.06550154	      0.04489616	      0.06708409	      0.03747119	     -0.02743588	     -0.00864393	     -0.04769002	     -0.00262077	      0.00694706	     -0.05255752	     -0.10976428	     -0.10808002	      0.00000079	     -0.32847694	      0.00000060	     -0.00000086	     18.24022141	    183.85962806	     27.85338108	    -15.89417975	      0.51437663	      6.98641512	    -18.24022141	   -183.85962806	    -27.85338108	      5.65596864	     -0.84004180	      1.86794675	    -17.53051523	     27.23411688	      0.55483955	      0.42591266	      0.41861334	     -7.19409278	     17.53051523	    -27.23411688	     -0.55483955	     -0.57644913	     -0.38455656	      0.76612945	    -51.09738508	   -478.65143213	    120.81173311	    -11.64029719	      1.74498293	      2.02280416	     51.09738508	    478.65143213	   -120.81173311	     58.93914832	     -0.62747440	     22.40979516	    -58.83007408	   -310.49270409	    -75.32949048	     10.50967520	     -2.26994337	      1.14637733	     58.83007408	    310.49270409	     75.32949048	    -38.62207765	      1.36765789	     24.52760193	    186.84988452	     32.39326988	    324.87109605	    496.29992051
      0.10574496	      0.00869052	      0.00730859	     27.28092235	     20.46887788	     -8.20270877	      0.00000000	      0.00000000	      0.00000000	      0.00000000	    -32.24559403	      0.00000000	      0.00000000	      0.00000000	      0.00000000	      0.00000000	      0.00000001	      0.00000000	      0.03305761	      0.02595855	      0.03032443	      0.02969323	      0.05720107	      0.05963812	      0.05909602	      0.05303142	      0.05010863	      0.04663292	      0.01525851	      0.01651186	      0.06550154	      0.04489616	      0.06618524	      0.03590958	     -0.02479065	     -0.00651016	     -0.04707767	     -0.00259864	      0.00626655	     -0.05262456	     -0.11026493	     -0.10908459	      0.00000079	     -0.32847694	      0.00000060	     -0.00000086	     16.93724637	    183.10885358	     28.43133529	    -16.11674915	      0.47882961	      6.41689679	    -16.93724637	   -183.10885358	    -28.43133529	      5.64912783	     -0.80955083	      1.94889614	    -17.67131273	     28.52558978	      0.78864639	      0.35978865	      0.42345448	     -7.24577339	     17.67131273	    -28.52558978	     -0.78864639	     -0.59790229	     -0.39220571	      0.78004887	    -53.73425206	   -481.63827759	    120.80785350	    -11.69199573	      1.80055409	      1.98773642	     53.73425206	    481.63827759	   -120.80785350	     58.97693220	     -0.67537691	     23.53005076	    -56.60789767	   -298.59223663	    -73.02587341	     10.11321183	     -2.20302693	      1.16759186	     56.60789767	    298.59223663	     73.02587341	    -37.38193012	      1.32436964	     23.56316416	    186.07542396	     33.56495984	    312.56128365	    499.45704295
      0.10663416	      0.00871642	      0.00742197	     27.67449138	     19.20311920	     -9.32611932	      0.00000000	      0.00000000	      0.00000000	      0.00000000	    -32.09839562	      0.00000000	      0.00000000	      0.00000000	      0.00000000	      0.00000000	      0.00000001	      0.00000000	      0.03302903	      0.02591886	      0.03040691	      0.02975677	      0.05723847	      0.05963971	      0.05905636	      0.05302773	      0.05008016	      0.04657992	      0.01525851	      0.01651186	      0.06550154	      0.04489616	      0.06526351	      0.03432576	     -0.02213791	     -0.00438415	     -0.04645456	     -0.00257201	      0.00559125	     -0.05269062	     -0.11077045	     -0.11009718	      0.00000079	     -0.32847694	      0.00000060	     -0.00000086	     15.25861798	    182.75996871	     28.93405296	    -16.32011044	      0.43086093	      5.68799108	    -15.25861798	   -182.75996871	    -28.93405296	      5.65280173	     -0.76532002	      2.05009257	    -18.15561857	     29.41731743	      1.15461601	      0.22909557	      0.43229781	     -7.45015867	     18.15561857	    -29.41731743	     -1.15461601	     -0.60630550	     -0.40453500	      0.81142600	    -56.35356493	   -484.01077226	    120.61128216	    -11.73123777	      1.85221886	      1.95506151	     56.35356493	    484.01077226	   -120.61128216	     58.92720036	     -0.72083672	     24.63666216	    -56.24263244	   -286.92050871	    -70.35885108	      9.71071529	     -2.17550580	      1.11148217	     56.24263244	    286.92050871	     70.35885108	    -35.99542253	      1.32027429	     23.38727756	    185.66424267	     34.58812208	    300.72741802	    501.98529194
      0.10752337	      0.00874357	      0.00753682	     28.07040591	     17.78580463	    -10.53786257	      0.00000000	      0.00000000	      0.00000000	      0.00000000	    -32.14410793	      0.00000000	      0.00000000	      0.00000000	      0.00000000	      0.00000000	      0.00000001	      0.00000000	      0.03299956	      0.02587847	      0.03048967	      0.02982009	      0.05727637	      0.05964143	      0.05901687	      0.05302398	      0.05005130	      0.04652638	      0.01525851	      0.01651186	      0.06550154	      0.04489616	      0.06431295	      0.03271417	     -0.01947656	     -0.00226533	     -0.04582322	     -0.00254322	      0.00491872	     -0.05275761	     -0.11128296	     -0.11111998	      0.00000079	     -0.32847694	      0.00000060	     -0.00000086	     13.49125889	    182.80766299	     29.15294232	    -16.40901711	      0.38352473	      4.91944732	    -13.49125889	   -182.80766299	    -29.15294232	      5.65151906	     -0.71884777	      2.16154681	    -18.65205635	     30.51410339	      1.46610315	      0.12682618	      0.44084347	     -7.65835188	     18.65205635	    -30.51410339	     -1.46610315	     -0.62190123	     -0.41607312	      0.84436144	    -58.31688723	   -486.53612661	    120.44351472	    -11.77243941	      1.89370091	      1.95430020	     58.31688723	    486.53612661	   -120.44351472	     58.89090904	     -0.75398526	     25.46365855	    -55.84883232	   -275.95881553	    -68.38750210	      9.35207030	     -2.15563145	      1.06114703	     55.84883232	    275.95881553	     68.38750210	    -34.91646374	      1.31690131	     23.20054479	    185.60859290	     35.79328387	    289.73990126	    504.60370794
      0.10841258	      0.00877159	      0.00765323	     28.46853064	     16.38254957	    -11.68674960	      0.00000000	      0.00000000	      0.00000000	      0.00000000	    -32.10750234	      0.00000000	      0.00000000	      0.00000000	      0.00000000	      0.00000000	      0.00000001	      0.00000000	      0.03296889	      0.02583715	      0.03057274	      0.02988322	      0.05731459	      0.05964312	      0.05897737	      0.05302001	      0.05002186	      0.04647213	      0.01525851	      0.01651186	      0.06550154	      0.04489616	      0.06332396	      0.03106515	     -0.01680511	     -0.00015336	     -0.04518644	     -0.00251496	      0.00424619	     -0.05282842	     -0.11180572	     -0.11215637	      0.00000079	     -0.32847694	      0.00000060	     -0.00000086	     11.76106902	    182.56953094	     29.16335313	    -16.40691806	      0.33533337	      4.16818916	    -11.76106902	   -182.56953094	    -29.16335313	      5.63847792	     -0.66962900	      2.26730417	    -18.89444107	     31.60165214	      1.98046611	     -0.06416983	      0.44599522	     -7.75782950	     18.89444107	    -31.60165214	     -1.98046611	     -0.62644579	     -0.42699739	      0.86593729	    -61.07002365	   -488.54194976	    119.81462435	    -11.78533231	      1.94252879	      1.92147760	     61.07002365	    488.54194976	   -119.81462435	     58.64907839	     -0.80073818	     26.62080351	    -55.39243306	   -265.85991081	    -66.17703057	      9.00804507	     -2.13016373	      1.01911534	     55.39243306	    265.85991081	     66.17703057	    -33.75790689	      1.31080449	     22.98906130	    185.25781371	     36.87257202	    279.51603388	    506.71326081
